# xmcd
#
# Track frame offsets:
#	150
#	14796
#	29005
#	44187
#	61926
#	81946
#	96589
#	113186
#	130366
#	145661
#	161044
#	175419
#	191894
#	206188
#	227793
#	244405
#	259139
#	259795
#	260435
#	261091
#	261962
#	262687
#	263340
#
# Disc length: 3517 seconds
#
# Revision: 1
# Processed by: cddbd v1.5.2PL0 Copyright (c) Steve Scherf et al.
# Submitted via: audiograbber 1.83.01
#
DISCID=680dbb17
DTITLE=Various Artist - CDX 606
DYEAR=2014
DGENRE=Country
TTITLE0=Billy Currington - Don't It
TTITLE1=Lady Antebellum - Freestyle (Radio Edit)
TTITLE2=Sara Evans - Put My Heart Down
TTITLE3=Carrie Underwood - Something In the Water (Edit)
TTITLE4=Eric Church - Talladega
TTITLE5=Gloriana - Trouble (Radio Edit)
TTITLE6=Markus Fox - 22 Miles From Hell
TTITLE7=Owen Howell- - Backyard Party
TTITLE8=The Stickers - Country Proud
TTITLE9=Tim Hadler - Down By The Railroad Tracks
TTITLE10=Smith N Western - Fallen Angel
TTITLE11=Joanna Mosca - He Ain't You
TTITLE12=Vish - I Was Born To Love You
TTITLE13=Johnna Williamson w. Red Dirt City Limits - Let The Freedom Bell Ring
TTITLE14=Frank Ortega - My Old Man
TTITLE15=Brandon Alan - Through The Cracks
TTITLE16=Gracia Harrison - Home Town Country (Liner)
TTITLE17=Gracia Harrison - Kickin' Country (Liner)
TTITLE18=Gracia Harrison - More of the Country You Love (Liner)
TTITLE19=Gracia Harrison - My New Single (Liner)
TTITLE20=Gracia Harrison - Super Country (Liner)
TTITLE21=Gracia Harrison - The Best In Country Music (Liner)
TTITLE22=Gracia Harrison - Today's Hot Country Music (Liner)
EXTD=
EXTT0=
EXTT1=
EXTT2=
EXTT3=
EXTT4=
EXTT5=
EXTT6=
EXTT7=
EXTT8=
EXTT9=
EXTT10=
EXTT11=
EXTT12=
EXTT13=
EXTT14=
EXTT15=
EXTT16=
EXTT17=
EXTT18=
EXTT19=
EXTT20=
EXTT21=
EXTT22=
PLAYORDER=
